<svg width="236" height="27" viewBox="0 0 236 27" fill="none" xmlns="http://www.w3.org/2000/svg">
<path d="M0.907003 26.375V1.525H17.952V7.475H7.732V11.605H16.062V17.135H7.732V26.375H0.907003ZM20.1737 26.375V7.965H26.8237V26.375H20.1737ZM20.1737 6.425V0.824999H26.8237V6.425H20.1737ZM37.5733 26.725C35.9633 26.725 34.3767 26.4683 32.8133 25.955C31.2733 25.4183 29.9667 24.6483 28.8933 23.645L31.1683 19.55C32.3117 20.2967 33.4083 20.88 34.4583 21.3C35.5317 21.72 36.5 21.93 37.3633 21.93C37.8533 21.93 38.215 21.8717 38.4483 21.755C38.6817 21.615 38.7983 21.3933 38.7983 21.09C38.7983 20.88 38.7167 20.705 38.5533 20.565C38.39 20.425 38.1217 20.285 37.7483 20.145C37.3983 20.005 36.9433 19.8533 36.3833 19.69C34.9367 19.1767 33.7233 18.6983 32.7433 18.255C31.7867 17.8117 31.0633 17.275 30.5733 16.645C30.1067 15.9917 29.8733 15.1283 29.8733 14.055C29.8733 12.795 30.1883 11.6867 30.8183 10.73C31.4483 9.75 32.3467 8.98 33.5133 8.42C34.7033 7.86 36.1267 7.58 37.7833 7.58C39.02 7.58 40.2567 7.77833 41.4933 8.175C42.7533 8.54833 43.9667 9.23667 45.1333 10.24L42.6133 14.3C41.4467 13.5767 40.455 13.0633 39.6383 12.76C38.845 12.4567 38.1333 12.305 37.5033 12.305C37.2 12.305 36.9317 12.34 36.6983 12.41C36.4883 12.48 36.325 12.585 36.2083 12.725C36.0917 12.865 36.0333 13.0517 36.0333 13.285C36.0333 13.5183 36.115 13.7167 36.2783 13.88C36.4417 14.02 36.6983 14.16 37.0483 14.3C37.3983 14.4167 37.8417 14.5567 38.3783 14.72C39.965 15.1867 41.26 15.665 42.2633 16.155C43.2667 16.6217 44.0017 17.1933 44.4683 17.87C44.9583 18.5467 45.2033 19.4333 45.2033 20.53C45.2033 22.4667 44.515 23.9833 43.1383 25.08C41.785 26.1767 39.93 26.725 37.5733 26.725ZM66.2375 26.375H59.5875V16.015C59.5875 15.105 59.3775 14.4517 58.9575 14.055C58.5608 13.635 58.0592 13.425 57.4525 13.425C57.1725 13.425 56.8225 13.53 56.4025 13.74C56.0058 13.95 55.6208 14.2533 55.2475 14.65C54.8742 15.0467 54.5825 15.5133 54.3725 16.05V26.375H47.7225V0.824999H54.3725V10.695C55.0258 9.69167 55.8775 8.93333 56.9275 8.42C58.0008 7.88333 59.1792 7.615 60.4625 7.615C61.7692 7.615 62.8075 7.83667 63.5775 8.28C64.3475 8.7 64.9192 9.24833 65.2925 9.925C65.6658 10.6017 65.9108 11.325 66.0275 12.095C66.1675 12.865 66.2375 13.5883 66.2375 14.265V26.375ZM69.7449 26.375V1.525H86.7899V7.475H76.5699V11.605H84.8999V17.135H76.5699V26.375H69.7449ZM87.0395 20.81C87.0395 19.5733 87.3779 18.4883 88.0545 17.555C88.7312 16.5983 89.6645 15.8517 90.8545 15.315C92.0679 14.7783 93.4445 14.51 94.9845 14.51C95.7079 14.51 96.3845 14.5683 97.0145 14.685C97.6679 14.8017 98.2279 14.9767 98.6945 15.21V14.65C98.6945 13.7867 98.4379 13.145 97.9245 12.725C97.4345 12.305 96.6295 12.095 95.5095 12.095C94.4829 12.095 93.5145 12.27 92.6045 12.62C91.7179 12.9467 90.7845 13.4367 89.8045 14.09L87.8795 9.96C89.1162 9.16667 90.4112 8.58333 91.7645 8.21C93.1412 7.81333 94.6112 7.615 96.1745 7.615C99.0912 7.615 101.343 8.28 102.93 9.61C104.54 10.9167 105.345 12.865 105.345 15.455V19.025C105.345 19.655 105.438 20.0983 105.625 20.355C105.811 20.5883 106.138 20.7283 106.605 20.775V26.375C106.068 26.4917 105.555 26.5733 105.065 26.62C104.598 26.69 104.178 26.725 103.805 26.725C102.615 26.725 101.705 26.515 101.075 26.095C100.468 25.6517 100.071 25.01 99.8845 24.17L99.7445 23.505C98.9279 24.555 97.9829 25.36 96.9095 25.92C95.8362 26.4567 94.6929 26.725 93.4795 26.725C92.2662 26.725 91.1695 26.4683 90.1895 25.955C89.2095 25.4417 88.4395 24.7417 87.8795 23.855C87.3195 22.945 87.0395 21.93 87.0395 20.81ZM97.8195 21.265C98.0762 21.0783 98.2862 20.88 98.4495 20.67C98.6129 20.4367 98.6945 20.2033 98.6945 19.97V18.605C98.3212 18.465 97.8895 18.3483 97.3995 18.255C96.9329 18.1617 96.5129 18.115 96.1395 18.115C95.3462 18.115 94.6695 18.3133 94.1095 18.71C93.5729 19.1067 93.3045 19.6083 93.3045 20.215C93.3045 20.5417 93.3979 20.845 93.5845 21.125C93.7712 21.3817 94.0279 21.5917 94.3545 21.755C94.6812 21.895 95.0545 21.965 95.4745 21.965C95.8712 21.965 96.2795 21.9067 96.6995 21.79C97.1429 21.65 97.5162 21.475 97.8195 21.265ZM121.502 13.635C120.218 13.635 119.052 13.775 118.002 14.055C116.952 14.335 116.17 14.8017 115.657 15.455V26.375H109.007V7.965H115.097V11.465C115.75 10.2283 116.567 9.28333 117.547 8.63C118.527 7.95333 119.565 7.615 120.662 7.615C120.918 7.615 121.093 7.615 121.187 7.615C121.303 7.615 121.408 7.62667 121.502 7.65V13.635ZM153.247 26.375H146.597V16.015C146.597 15.105 146.411 14.4517 146.037 14.055C145.687 13.635 145.256 13.425 144.742 13.425C144.229 13.425 143.669 13.67 143.062 14.16C142.456 14.65 142.012 15.28 141.732 16.05V26.375H135.082V16.015C135.082 15.105 134.896 14.4517 134.522 14.055C134.172 13.635 133.741 13.425 133.227 13.425C132.714 13.425 132.154 13.67 131.547 14.16C130.941 14.65 130.497 15.28 130.217 16.05V26.375H123.567V7.965H129.552V10.695C130.206 9.69167 131.104 8.93333 132.247 8.42C133.391 7.88333 134.744 7.615 136.307 7.615C137.824 7.615 138.967 7.94167 139.737 8.595C140.507 9.24833 141.021 9.98333 141.277 10.8C141.931 9.79667 142.829 9.015 143.972 8.455C145.116 7.895 146.399 7.615 147.822 7.615C149.036 7.615 150.004 7.83667 150.727 8.28C151.451 8.72333 151.987 9.295 152.337 9.995C152.711 10.695 152.956 11.43 153.072 12.2C153.189 12.9467 153.247 13.635 153.247 14.265V26.375Z" fill="black"/>
<path d="M155.572 13.74C155.572 12.2233 155.852 10.7417 156.412 9.295C156.996 7.825 157.836 6.495 158.932 5.305C160.029 4.115 161.359 3.17 162.922 2.47C164.509 1.74667 166.294 1.385 168.277 1.385C170.657 1.385 172.734 1.88667 174.507 2.89C176.281 3.87 177.599 5.17667 178.462 6.81L173.247 10.52C172.944 9.70333 172.501 9.07333 171.917 8.63C171.357 8.18667 170.739 7.88333 170.062 7.72C169.409 7.53333 168.767 7.44 168.137 7.44C167.157 7.44 166.306 7.63833 165.582 8.035C164.882 8.40833 164.299 8.91 163.832 9.54C163.389 10.17 163.051 10.87 162.817 11.64C162.607 12.41 162.502 13.18 162.502 13.95C162.502 14.8133 162.631 15.6417 162.887 16.435C163.144 17.2283 163.517 17.94 164.007 18.57C164.497 19.1767 165.092 19.655 165.792 20.005C166.516 20.355 167.321 20.53 168.207 20.53C168.837 20.53 169.479 20.4367 170.132 20.25C170.786 20.04 171.381 19.7133 171.917 19.27C172.454 18.8267 172.862 18.2317 173.142 17.485L178.707 20.81C178.217 22.0233 177.401 23.0617 176.257 23.925C175.114 24.7883 173.819 25.4533 172.372 25.92C170.926 26.3633 169.491 26.585 168.067 26.585C166.224 26.585 164.532 26.2233 162.992 25.5C161.476 24.7533 160.157 23.7733 159.037 22.56C157.941 21.3233 157.089 19.9467 156.482 18.43C155.876 16.89 155.572 15.3267 155.572 13.74ZM180.541 0.824999H187.191V19.06C187.191 19.7367 187.331 20.2617 187.611 20.635C187.915 20.985 188.346 21.16 188.906 21.16C189.186 21.16 189.49 21.1133 189.816 21.02C190.143 20.9267 190.446 20.7983 190.726 20.635L191.566 25.535C190.773 25.9083 189.875 26.2 188.871 26.41C187.891 26.62 186.958 26.725 186.071 26.725C184.298 26.725 182.933 26.27 181.976 25.36C181.02 24.4267 180.541 23.1083 180.541 21.405V0.824999ZM192.948 20.075V7.965H199.598V18.57C199.598 19.3633 199.773 19.9933 200.123 20.46C200.496 20.9033 200.998 21.125 201.628 21.125C201.978 21.125 202.328 21.0783 202.678 20.985C203.028 20.8917 203.378 20.705 203.728 20.425C204.101 20.145 204.463 19.7483 204.813 19.235V7.965H211.463V19.025C211.463 19.655 211.556 20.0983 211.743 20.355C211.93 20.5883 212.256 20.7283 212.723 20.775V26.375C212.14 26.4917 211.615 26.5733 211.148 26.62C210.681 26.69 210.273 26.725 209.923 26.725C208.803 26.725 207.916 26.515 207.263 26.095C206.61 25.675 206.19 25.0333 206.003 24.17L205.863 23.505C205 24.6483 203.961 25.4767 202.748 25.99C201.558 26.48 200.205 26.725 198.688 26.725C196.845 26.725 195.421 26.1533 194.418 25.01C193.438 23.8667 192.948 22.2217 192.948 20.075ZM227.167 26.725C225.791 26.725 224.601 26.4567 223.597 25.92C222.594 25.36 221.801 24.555 221.217 23.505V26.375H215.442V0.824999H222.092V10.695C222.629 9.69167 223.387 8.93333 224.367 8.42C225.347 7.88333 226.502 7.615 227.832 7.615C228.952 7.615 229.991 7.86 230.947 8.35C231.904 8.81667 232.732 9.48167 233.432 10.345C234.156 11.2083 234.716 12.235 235.112 13.425C235.509 14.5917 235.707 15.8633 235.707 17.24C235.707 18.5933 235.486 19.8533 235.042 21.02C234.622 22.1633 234.027 23.1667 233.257 24.03C232.511 24.8933 231.612 25.5583 230.562 26.025C229.536 26.4917 228.404 26.725 227.167 26.725ZM225.242 21.125C225.779 21.125 226.269 21.0317 226.712 20.845C227.156 20.6583 227.541 20.4017 227.867 20.075C228.194 19.725 228.439 19.3167 228.602 18.85C228.789 18.3833 228.882 17.8583 228.882 17.275C228.882 16.5283 228.731 15.8517 228.427 15.245C228.147 14.615 227.751 14.125 227.237 13.775C226.747 13.4017 226.176 13.215 225.522 13.215C225.056 13.215 224.601 13.3317 224.157 13.565C223.714 13.7983 223.306 14.125 222.932 14.545C222.582 14.9417 222.302 15.4083 222.092 15.945V19.235C222.302 19.5383 222.524 19.8183 222.757 20.075C223.014 20.3083 223.271 20.5067 223.527 20.67C223.784 20.81 224.052 20.9267 224.332 21.02C224.636 21.09 224.939 21.125 225.242 21.125Z" fill="#F67701"/>
</svg>
